<svg width="80" height="80" viewBox="0 0 80 80" fill="none" xmlns="http://www.w3.org/2000/svg">
<path d="M71.5199 33.8467C71.9299 36.0433 72.1533 38.34 72.1533 40.7367C72.1533 59.4833 59.6066 72.8133 40.6566 72.8133C36.3471 72.8146 32.0796 71.9668 28.0979 70.3182C24.1162 68.6697 20.4984 66.2527 17.4511 63.2055C14.4039 60.1582 11.9869 56.5404 10.3384 52.5587C8.68979 48.577 7.84195 44.3095 7.84326 40C7.84195 35.6905 8.68979 31.423 10.3384 27.4413C11.9869 23.4596 14.4039 19.8418 17.4511 16.7945C20.4984 13.7473 24.1162 11.3303 28.0979 9.68176C32.0796 8.0332 36.3471 7.18536 40.6566 7.18667C49.5166 7.18667 56.9199 10.4467 62.5999 15.74L53.3499 24.99V24.9667C49.9066 21.6867 45.5366 20.0033 40.6566 20.0033C29.8299 20.0033 21.0299 29.15 21.0299 39.98C21.0299 50.8067 29.8299 59.9733 40.6566 59.9733C50.4799 59.9733 57.1666 54.3567 58.5399 46.6433H40.6566V33.8467H71.5233H71.5199Z" fill="#242635"/>
</svg>
