<svg width="80" height="80" viewBox="0 0 80 80" fill="none" xmlns="http://www.w3.org/2000/svg">
<path d="M64.453 60.0703C64.1952 60 63.8827 60.0391 63.5233 60.1719C58.7108 62.375 54.0312 63.9453 49.4843 64.875C39.664 66.875 30.0937 65.8281 20.7812 61.7422C18.1952 60.6016 14.6015 58.6797 9.99993 55.961C9.88136 55.8674 9.73671 55.8128 9.58586 55.8047C9.42961 55.7969 9.2968 55.8125 9.1718 55.875C9.0468 55.9375 8.95305 56.0156 8.88274 56.1172C8.81243 56.2188 8.7968 56.3594 8.85149 56.5391C8.89836 56.711 9.01555 56.9063 9.21086 57.1172C10.0234 58.0703 11.0312 59.086 12.2265 60.1641C13.4218 61.2422 15.0077 62.461 16.9843 63.8203C18.9609 65.1797 21.0312 66.3906 23.1796 67.4453C25.3359 68.5 27.8359 69.3906 30.6874 70.1094C33.539 70.8281 36.3905 71.1875 39.2343 71.1875C42.0624 71.1875 44.8124 70.8985 47.4765 70.336C50.1483 69.7656 52.3983 69.0938 54.2343 68.3125C56.0624 67.5391 57.7499 66.6719 59.2968 65.7344C60.8436 64.7969 61.9843 64 62.7265 63.3672C63.4687 62.7266 63.9999 62.2266 64.3046 61.8516C64.664 61.4063 64.8436 61.0235 64.8436 60.6875C64.8515 60.336 64.7108 60.1328 64.453 60.0703V60.0703ZM41.203 27.1953C40.0155 27.2969 38.5858 27.5156 36.9062 27.8438C35.2265 28.1641 33.6718 28.5703 32.2343 29.0469C30.7968 29.5234 29.328 30.1875 27.8359 31.0313C26.3359 31.875 25.0624 32.8438 24.0077 33.9219C22.953 35 22.0937 36.3516 21.4218 37.9844C20.7499 39.6094 20.414 41.3984 20.414 43.3516C20.414 45.4688 20.7812 47.3516 21.5312 49.0156C22.2734 50.6797 23.2655 51.9844 24.5155 52.9531C25.7577 53.9219 27.1718 54.6797 28.7343 55.2344C30.2968 55.7891 31.953 56.0391 33.6718 55.9688C35.3905 55.8985 37.0702 55.6328 38.703 55.1641C40.328 54.7031 41.8593 53.961 43.2812 52.9531C44.703 51.9453 45.8671 50.75 46.7812 49.3828C47.1171 49.8984 47.414 50.2813 47.6796 50.5313L48.3593 51.2266C48.8124 51.6875 49.5077 52.3672 50.4452 53.2656C51.3749 54.1641 52.328 55.0391 53.2812 55.8985L61.4374 48.0938L60.9687 47.7109C60.6327 47.4531 60.2343 47.0859 59.7812 46.5938C59.328 46.1094 58.8749 45.5703 58.4374 44.9922C57.9921 44.4141 57.6093 43.7344 57.289 42.9688C56.9687 42.2031 56.8046 41.4609 56.8046 40.7422V20.2109C56.8046 19.4219 56.6562 18.5703 56.3593 17.6484C56.0546 16.7344 55.5233 15.7344 54.7421 14.6563C53.9608 13.5781 52.9921 12.6094 51.8358 11.7656C50.6718 10.9219 49.1249 10.2031 47.1796 9.625C45.2421 9.04687 43.0702 8.75781 40.6796 8.75781C38.2343 8.75781 35.9609 9.04688 33.8359 9.60938C31.7187 10.1797 29.9062 10.9375 28.3905 11.8906C26.8827 12.8438 25.5859 13.9453 24.5077 15.2031C23.4296 16.4609 22.6249 17.7734 22.1015 19.1406C21.578 20.5078 21.3124 21.8906 21.3124 23.2891L31.8749 24.2188C32.3046 22.9375 32.8827 21.8281 33.5937 20.875C34.3124 19.9219 34.9921 19.2344 35.6093 18.8047C36.2343 18.375 36.9062 18.0313 37.6171 17.7734C38.3359 17.5156 38.8202 17.3828 39.0702 17.3516C39.3202 17.3281 39.5155 17.3203 39.664 17.3203C41.7499 17.3203 43.1952 17.9375 44.0077 19.1641C44.5155 19.9063 44.7655 21.0313 44.7655 22.5469V26.9688C43.578 27.0156 42.3905 27.0938 41.203 27.1953V27.1953ZM44.7733 39.0625C44.7733 40.3594 44.6015 41.5391 44.2655 42.5781C43.5468 44.8516 42.1796 46.2813 40.1718 46.8594C38.4218 47.375 36.7577 47.1172 35.1796 46.0938C33.4999 45 32.664 43.4531 32.664 41.4609C32.664 39.9063 33.0546 38.5781 33.8359 37.4688C34.6171 36.3672 35.6562 35.5391 36.9609 34.9922C38.2655 34.4453 39.539 34.0547 40.789 33.8281C42.0312 33.5938 43.3671 33.4531 44.7733 33.4063V39.0625V39.0625ZM70.9608 56.1641C70.6249 55.7422 69.7186 55.4688 68.2343 55.3281C66.7499 55.1875 65.4608 55.1953 64.3515 55.3594C63.1561 55.5 61.9218 55.8438 60.6562 56.4063C59.3827 56.961 58.828 57.4297 58.9686 57.7969L59.0233 57.8985L59.0937 57.9531L59.203 57.9688H59.5624C59.6249 57.9688 59.703 57.961 59.8124 57.9531C59.9218 57.9453 60.0233 57.9297 60.1171 57.9219C60.2108 57.9141 60.3436 57.8985 60.5155 57.8906C60.6796 57.8828 60.8358 57.8594 60.9843 57.836C61.0077 57.836 61.2733 57.8125 61.789 57.7656C62.3046 57.7188 62.6796 57.6875 62.9061 57.6641C63.1327 57.6406 63.5155 57.6172 64.039 57.5938C64.5624 57.5703 64.9843 57.5703 65.2968 57.5938C65.6093 57.6172 65.9608 57.6485 66.3593 57.6797C66.7577 57.711 67.078 57.7813 67.328 57.8906C67.578 57.9922 67.7655 58.125 67.8827 58.2891C68.289 58.8047 68.2108 59.9453 67.6483 61.7188C67.0858 63.4922 66.5546 64.9063 66.0546 65.9531C65.8358 66.3985 65.8358 66.6719 66.0546 66.7891C66.2733 66.9063 66.578 66.7969 66.9843 66.4766C68.203 65.5235 69.2186 64.086 70.039 62.1563C70.5155 61.0156 70.8593 59.8281 71.0624 58.586C71.2499 57.3438 71.2186 56.5391 70.9608 56.1641V56.1641Z" fill="#242635"/>
</svg>
